<svg xmlns="http://www.w3.org/2000/svg" width="26.265" height="57.672" viewBox="0 0 26.265 57.672"><g transform="translate(-0.504 -0.236)"><path d="M1.131,12.606a8.535,8.535,0,0,1-.7-6.994A9.768,9.768,0,0,1,4.7,0a9.632,9.632,0,0,1,.985,7.453A8.155,8.155,0,0,1,1.131,12.606Z" transform="translate(18.636 8.233)" fill="#fff"/><path d="M6.461,11.39A7.528,7.528,0,0,1,1.02,7.52,9.763,9.763,0,0,1,.553,0,8.98,8.98,0,0,1,5.8,4.391,8.612,8.612,0,0,1,6.461,11.39Z" transform="translate(7.815 11.529)" fill="#fff"/><path d="M5.7,5.137a8.6,8.6,0,0,1-.138,7.04A7.9,7.9,0,0,1,.6,7.528,9.749,9.749,0,0,1,1,0,9.434,9.434,0,0,1,5.7,5.137Z" transform="translate(8.229 22.473)" fill="#fff"/><path d="M1.379,0A9.794,9.794,0,0,1,5.637,5.627a8.525,8.525,0,0,1-.715,6.992A8.192,8.192,0,0,1,.374,7.451,9.625,9.625,0,0,1,1.379,0Z" transform="translate(4.729 30.767)" fill="#fff"/><path d="M3.072,13.257A9.116,9.116,0,0,1,.009,6.8,9.012,9.012,0,0,1,2.844,0,10.88,10.88,0,0,1,5.511,6.8,8.017,8.017,0,0,1,3.072,13.257Z" transform="translate(0.544 38.928)" fill="#fff"/><path d="M4.213,12.765A7.257,7.257,0,0,1,.258,7.392,11.564,11.564,0,0,1,1.1,0,8.123,8.123,0,0,1,5.521,5.576,9.815,9.815,0,0,1,4.213,12.765Z" transform="translate(11.14 0.236)" fill="#fff"/><path d="M.285,10.836a8.6,8.6,0,0,1,1.128-6.92A8.724,8.724,0,0,1,6.937,0s1.244,4.093-.969,7.458A7.32,7.32,0,0,1,.285,10.836Z" transform="translate(19.484 18.931)" fill="#fff"/><path d="M.024,8.886A8.308,8.308,0,0,1,2.464,2.423,8.144,8.144,0,0,1,8.6.017s.42,4.311-2.387,7.025A6.945,6.945,0,0,1,.024,8.886Z" transform="translate(17.208 30.037)" fill="#fff"/><path d="M0,6.09A7.56,7.56,0,0,1,4.028.781,7.864,7.864,0,0,1,10.515.619S9.778,4.872,6.388,6.485A6.837,6.837,0,0,1,0,6.09Z" transform="translate(13.367 40.404)" fill="#fff"/><path d="M4.544.377A7.97,7.97,0,0,1,11,1.108s-1.17,4.116-4.7,5.26A6.963,6.963,0,0,1,0,5.091,7.212,7.212,0,0,1,4.544.377Z" transform="translate(7.135 49.261)" fill="#fff"/><path d="M14.473.91,16.09,0c.085.2,8.378,20.436-14.927,43.314L0,41.747C22.181,19.964,14.8,1.675,14.473.91Z" transform="translate(0.504 14.594)" fill="#fff"/></g></svg>