<svg xmlns="http://www.w3.org/2000/svg" width="26.043" height="57.672" viewBox="0 0 26.043 57.672"><g transform="translate(-0.001 -0.277)"><path d="M4.9,12.606a8.611,8.611,0,0,0,.693-7A9.765,9.765,0,0,0,1.355,0,9.7,9.7,0,0,0,.377,7.453,8.134,8.134,0,0,0,4.9,12.606Z" transform="translate(2.043 8.271)" fill="#fff"/><path d="M.448,11.39A7.443,7.443,0,0,0,5.841,7.52,9.84,9.84,0,0,0,6.3,0,8.9,8.9,0,0,0,1.1,4.393,8.674,8.674,0,0,0,.448,11.39Z" transform="translate(11.938 11.567)" fill="#fff"/><path d="M.672,5.137a8.671,8.671,0,0,0,.137,7.04,7.84,7.84,0,0,0,4.913-4.65A9.812,9.812,0,0,0,5.33,0,9.381,9.381,0,0,0,.672,5.137Z" transform="translate(12.063 22.514)" fill="#fff"/><path d="M4.644,0A9.775,9.775,0,0,0,.422,5.622a8.6,8.6,0,0,0,.706,6.994A8.15,8.15,0,0,0,5.64,7.451,9.7,9.7,0,0,0,4.644,0Z" transform="translate(15.841 30.806)" fill="#fff"/><path d="M2.426,13.255A9.143,9.143,0,0,0,5.465,6.8,9.036,9.036,0,0,0,2.656,0,10.9,10.9,0,0,0,.01,6.794,8.069,8.069,0,0,0,2.426,13.255Z" transform="translate(20.525 38.972)" fill="#fff"/><path d="M1.5,12.762A7.241,7.241,0,0,0,5.424,7.389,11.649,11.649,0,0,0,4.591,0,8.105,8.105,0,0,0,.206,5.573,9.886,9.886,0,0,0,1.5,12.762Z" transform="translate(9.817 0.277)" fill="#fff"/><path d="M6.94,10.836a8.661,8.661,0,0,0-1.12-6.92A8.64,8.64,0,0,0,.344,0s-1.231,4.093.961,7.458A7.237,7.237,0,0,0,6.94,10.836Z" transform="translate(0.001 18.969)" fill="#fff"/><path d="M8.53,8.884A8.351,8.351,0,0,0,6.11,2.426,8.027,8.027,0,0,0,.022.017S-.394,4.326,2.386,7.042A6.842,6.842,0,0,0,8.53,8.884Z" transform="translate(0.925 30.078)" fill="#fff"/><path d="M10.423,6.085A7.546,7.546,0,0,0,6.431.781,7.738,7.738,0,0,0,0,.619S.731,4.872,4.091,6.487A6.741,6.741,0,0,0,10.423,6.085Z" transform="translate(2.863 40.448)" fill="#fff"/><path d="M6.4.378A7.829,7.829,0,0,0,0,1.109S1.162,5.228,4.665,6.364a6.855,6.855,0,0,0,6.248-1.272A7.2,7.2,0,0,0,6.4.378Z" transform="translate(8.557 49.299)" fill="#fff"/><path d="M3.087.91,1.489,0C1.4.2-6.817,20.436,16.286,43.317l1.156-1.567C-4.555,19.962,2.764,1.677,3.087.91Z" transform="translate(8.602 14.632)" fill="#fff"/></g></svg>