<svg xmlns="http://www.w3.org/2000/svg" width="135.14" height="23.414" viewBox="0 0 135.14 23.414"><path d="M126.152,23.414a10.919,10.919,0,0,1-5.53-1.267,7.409,7.409,0,0,1-2.51-2.432,5.548,5.548,0,0,1-.965-2.958,2,2,0,0,1,2.054-2.023,1.753,1.753,0,0,1,1.229.464,3.664,3.664,0,0,1,.857,1.374,9.179,9.179,0,0,0,.934,1.807,3.806,3.806,0,0,0,1.413,1.2,5.246,5.246,0,0,0,2.394.472,5.424,5.424,0,0,0,3.313-.95,2.868,2.868,0,0,0,1.274-2.371,2.516,2.516,0,0,0-.688-1.831,4.45,4.45,0,0,0-1.776-1.073c-.718-.245-1.7-.51-2.912-.788a21.491,21.491,0,0,1-4.085-1.336,6.631,6.631,0,0,1-2.61-2.084,5.44,5.44,0,0,1-.966-3.282,5.665,5.665,0,0,1,1.02-3.321A6.451,6.451,0,0,1,121.549.78,12.13,12.13,0,0,1,126.09,0,11.291,11.291,0,0,1,129.7.518a7.655,7.655,0,0,1,2.525,1.374,5.779,5.779,0,0,1,1.467,1.8,4.174,4.174,0,0,1,.464,1.839A2.18,2.18,0,0,1,133.573,7a1.853,1.853,0,0,1-1.444.657,1.667,1.667,0,0,1-1.2-.394,5.344,5.344,0,0,1-.888-1.29,5.889,5.889,0,0,0-1.482-2,4.357,4.357,0,0,0-2.78-.718,4.837,4.837,0,0,0-2.866.78,2.276,2.276,0,0,0-1.088,1.877,1.912,1.912,0,0,0,.37,1.174,3.157,3.157,0,0,0,1.02.85,6.882,6.882,0,0,0,1.313.555c.443.134,1.16.326,2.193.587a34.532,34.532,0,0,1,3.467.989,10.581,10.581,0,0,1,2.642,1.312,5.43,5.43,0,0,1,1.7,1.954,6.284,6.284,0,0,1,.61,2.9,6.684,6.684,0,0,1-1.057,3.691,7.059,7.059,0,0,1-3.1,2.564A11.66,11.66,0,0,1,126.152,23.414Zm-13.823,0a2.051,2.051,0,0,1-.927-.194,1.909,1.909,0,0,1-.649-.525,4.867,4.867,0,0,1-.563-1.02c-.207-.471-.376-.868-.518-1.212l-1.081-2.842H99.386l-1.081,2.9a10.254,10.254,0,0,1-1.081,2.293,1.727,1.727,0,0,1-1.468.595,2.162,2.162,0,0,1-1.529-.634,1.949,1.949,0,0,1-.663-1.436,3.258,3.258,0,0,1,.154-.958c.109-.346.28-.808.509-1.374l5.792-14.7.043-.111.011-.028.54-1.382a7.765,7.765,0,0,1,.742-1.475,3.037,3.037,0,0,1,1.035-.95A3.194,3.194,0,0,1,103.973,0a3.228,3.228,0,0,1,1.6.363,3.1,3.1,0,0,1,1.035.934,6.659,6.659,0,0,1,.664,1.229c.182.441.4,1,.687,1.753l5.916,14.611a7.381,7.381,0,0,1,.695,2.425,2.015,2.015,0,0,1-.656,1.444A2.164,2.164,0,0,1,112.329,23.414ZM103.943,4.834l-3.352,9.345h6.764l-3.413-9.345ZM87.694,23.414a3.3,3.3,0,0,1-1.112-.178,2.838,2.838,0,0,1-.927-.563,5.518,5.518,0,0,1-.8-.9c-.241-.336-.484-.682-.742-1.057l-8.6-13.19V20.788a2.839,2.839,0,0,1-.6,1.962,2,2,0,0,1-1.544.664,1.976,1.976,0,0,1-1.56-.672,2.9,2.9,0,0,1-.587-1.954V3.321a4.994,4.994,0,0,1,.248-1.746A2.5,2.5,0,0,1,72.436.44,2.672,2.672,0,0,1,73.9,0a2.406,2.406,0,0,1,1.831.742,5.628,5.628,0,0,1,.679.88c.2.317.439.686.718,1.128l8.818,13.343V2.625A2.971,2.971,0,0,1,86.513.656,1.908,1.908,0,0,1,88.034,0a1.968,1.968,0,0,1,1.56.656,2.943,2.943,0,0,1,.571,1.969V20.434C90.166,22.412,89.334,23.414,87.694,23.414Zm-22.147,0a2.036,2.036,0,0,1-.927-.194,1.912,1.912,0,0,1-.648-.525,4.88,4.88,0,0,1-.564-1.02c-.2-.462-.372-.859-.518-1.212l-1.081-2.842H52.6l-1.081,2.9a10.253,10.253,0,0,1-1.081,2.293,1.726,1.726,0,0,1-1.467.595,2.162,2.162,0,0,1-1.529-.634,1.947,1.947,0,0,1-.664-1.436,3.305,3.305,0,0,1,.154-.958c.106-.337.278-.8.51-1.374l5.792-14.7.019-.049.106-.273.007-.018.463-1.182a7.49,7.49,0,0,1,.741-1.475,3.061,3.061,0,0,1,1.035-.95A3.208,3.208,0,0,1,57.191,0a3.243,3.243,0,0,1,1.6.363,3.1,3.1,0,0,1,1.035.934,6.531,6.531,0,0,1,.664,1.229c.176.43.408,1.019.688,1.753l5.915,14.611a7.415,7.415,0,0,1,.695,2.425,2.015,2.015,0,0,1-.656,1.444A2.164,2.164,0,0,1,65.547,23.414ZM57.161,4.834l-3.352,9.345h6.764L57.161,4.834ZM40.913,23.414a3.321,3.321,0,0,1-1.112-.178,2.838,2.838,0,0,1-.927-.563,5.588,5.588,0,0,1-.8-.9c-.286-.4-.515-.727-.742-1.057l-8.6-13.19V20.788a2.846,2.846,0,0,1-.6,1.962,2,2,0,0,1-1.544.664,1.977,1.977,0,0,1-1.561-.672,2.9,2.9,0,0,1-.587-1.954V3.321a5.015,5.015,0,0,1,.247-1.746A2.5,2.5,0,0,1,25.654.44,2.685,2.685,0,0,1,27.121,0a2.4,2.4,0,0,1,1.831.742,5.59,5.59,0,0,1,.679.88c.187.289.422.658.718,1.128l8.819,13.343V2.625A2.973,2.973,0,0,1,39.731.656,1.908,1.908,0,0,1,41.252,0a1.968,1.968,0,0,1,1.56.656,2.943,2.943,0,0,1,.571,1.969V20.434C43.384,22.412,42.552,23.414,40.913,23.414Zm-22.148,0a2.023,2.023,0,0,1-.926-.194,1.923,1.923,0,0,1-.649-.525,5.062,5.062,0,0,1-.564-1.02c-.174-.394-.348-.8-.517-1.212l-1.082-2.842h-9.2l-1.082,2.9A10.253,10.253,0,0,1,3.66,22.819a1.726,1.726,0,0,1-1.467.595,2.162,2.162,0,0,1-1.529-.634A1.947,1.947,0,0,1,0,21.344a3.2,3.2,0,0,1,.155-.958c.095-.309.266-.771.509-1.374l5.791-14.7.019-.049.106-.273.007-.018.463-1.182a7.643,7.643,0,0,1,.742-1.475A3.036,3.036,0,0,1,8.826.363,3.218,3.218,0,0,1,10.409,0a3.247,3.247,0,0,1,1.6.363,3.1,3.1,0,0,1,1.035.934,6.467,6.467,0,0,1,.664,1.229c.184.448.415,1.038.688,1.753l5.915,14.611a7.375,7.375,0,0,1,.7,2.425,2.016,2.016,0,0,1-.657,1.444A2.164,2.164,0,0,1,18.765,23.414ZM10.379,4.834,7.027,14.179h6.765L10.379,4.834Z" transform="translate(0)" fill="#fff"/></svg>