<svg xmlns="http://www.w3.org/2000/svg" width="48.045" height="60.816" viewBox="0 0 48.045 60.816"><path d="M16.987,53.208a19.374,19.374,0,0,1-4.531-.535.116.116,0,0,0-.024,0,.111.111,0,0,1-.039-.01A15.513,15.513,0,0,1,3.36,46.734,18.832,18.832,0,0,1,0,35.516,23.279,23.279,0,0,1,5.646,19.993L1.717,12.319a1.311,1.311,0,0,1,1.668-1.807l4.751,1.975L5.573,4.6a1.31,1.31,0,0,1,.463-1.456,1.294,1.294,0,0,1,.779-.258,1.346,1.346,0,0,1,.748.233l4.569,3.161L15.7.612A1.292,1.292,0,0,1,16.789,0h.018a1.345,1.345,0,0,1,1.087.571l4.051,5.936,4.421-3.353a1.31,1.31,0,0,1,1.522-.044,1.308,1.308,0,0,1,.533,1.425l-2.163,8.079,4.258-2.07A1.309,1.309,0,0,1,32.3,12.217l-3.366,8.224a.9.9,0,0,1-.047.094l0,.009-.025.045a21.4,21.4,0,0,1,3.776,6.767,24.953,24.953,0,0,1,1.34,8.158C33.973,46.1,27.147,53.208,16.987,53.208Zm.286-4.375-1.663,1.7c.52.039.958.059,1.377.059,8.729,0,14.368-5.918,14.368-15.077,0-6.367-2.687-12.365-7.012-15.654a1.309,1.309,0,0,1,1.584-2.085c.336.256.655.518.95.779l1.7-4.158L21.5,17.833a1.3,1.3,0,0,1-.572.133,1.31,1.31,0,0,1-1.186-.751l-2.9-6.174-2.528,5.485a1.307,1.307,0,0,1-1.69.66L5.681,14.3l1.951,3.815c.3-.243.562-.446.807-.623A1.3,1.3,0,0,1,9.2,17.25a1.309,1.309,0,0,1,.765,2.374,16.767,16.767,0,0,0-5.286,6.53,22.03,22.03,0,0,0-2.044,8.96l1.166-1.2,5.125-5.252-2.01-1.951a1.309,1.309,0,0,1,1.824-1.878l2.014,1.956,4.811-4.934-1.047-.99a1.309,1.309,0,1,1,1.8-1.9L17.407,20a1.325,1.325,0,0,1,.864-.323,1.272,1.272,0,0,1,.893.363,1.3,1.3,0,0,1,.106,1.724l4.407,4.168,1.04-1.067a1.309,1.309,0,0,1,1.874,1.828l-1.013,1.039,3.046,2.879a1.313,1.313,0,0,1,.05,1.851,1.309,1.309,0,0,1-1.849.052l-3.073-2.906-4.916,5.044,4.437,4.31,3.517-3.6A1.309,1.309,0,0,1,28.66,37.2l-3.51,3.587L27.2,42.772a1.308,1.308,0,0,1,.029,1.851,1.318,1.318,0,0,1-.94.4,1.3,1.3,0,0,1-.911-.37l-2.054-2-4.215,4.311.7.68a1.309,1.309,0,0,1,.027,1.851,1.318,1.318,0,0,1-.94.4,1.3,1.3,0,0,1-.912-.37l-.71-.691Zm-6.3-6.123h0L6.928,46.86a12.908,12.908,0,0,0,5.545,3.134l2.921-2.988-4.421-4.3Zm6.034-6.193h0L12.8,40.837l4.427,4.3,4.215-4.31-4.434-4.308Zm-12.25.159h0L2.965,38.515a.262.262,0,0,1-.063.043l-.008,0-.012.007a.172.172,0,0,0-.03.02A15.13,15.13,0,0,0,5.23,44.848l3.864-3.962L4.757,36.677Zm6.04-6.193h0L6.588,34.8l4.335,4.21,4.206-4.316L10.8,30.484Zm6.664-6.83h0l-4.837,4.958,4.331,4.208L21.847,27.8l-4.386-4.147ZM24.9,7.548l-5.02,3.805,1.67,3.545,1.6-.777a.282.282,0,0,0,.007-.032v-.019l0-.012ZM9.266,7.48l2.058,6.329,1.141.474,1.6-3.477Zm7.557-.85h.006a1.313,1.313,0,0,1,1.184.75l.73,1.551,1.109-.842-3-4.392L14.289,7.774l.89.617.462-1A1.313,1.313,0,0,1,16.824,6.629Z" transform="translate(0 9.933) rotate(-17)" fill="#ebba07"/></svg>