<svg xmlns="http://www.w3.org/2000/svg" width="15" height="10" viewBox="0 0 15 10"><path d="M13.3,10H.918a1.21,1.21,0,0,1-.129-.006L5.057,5.839l.967.875a1.631,1.631,0,0,0,2.181,0l.967-.881,4.25,4.161A1.058,1.058,0,0,1,13.3,10Zm1.614-.833h0L10.264,4.879,14.988.833A1.251,1.251,0,0,1,15,1V8.726a1.134,1.134,0,0,1-.087.44Zm-14.818,0h0A1.106,1.106,0,0,1,0,8.72V1A1.164,1.164,0,0,1,.013.833L4.737,4.882.1,9.166ZM7.506,5.834a.522.522,0,0,1-.345-.147L.789.082A1.165,1.165,0,0,1,1.218,0H13.783a1.174,1.174,0,0,1,.427.082L7.851,5.687A.519.519,0,0,1,7.506,5.834Z" fill="#ebba07"/></svg>