<svg xmlns="http://www.w3.org/2000/svg" width="14" height="14" viewBox="0 0 14 14"><path d="M6.559,10.346A25.444,25.444,0,0,0,4.794,8.3a1.442,1.442,0,0,0-2.026-.035L.494,9.957a.563.563,0,0,0-.068.059,1.5,1.5,0,0,0,0,2.1l1.393,1.417c.43.437,1.786.471,2.191.471a9.766,9.766,0,0,0,1.311-.09,9.859,9.859,0,0,0,5.718-2.888c4.152-4.221,2.9-8.653,2.329-9.235L12.037.434a1.444,1.444,0,0,0-2.064,0C9.956.453,9.94.472,9.926.49L8.2,2.741a1.5,1.5,0,0,0,.026,2.077l2.119,2.034a6.648,6.648,0,0,1-3.783,3.494Z" fill="#ebba07"/></svg>